<?xml version="1.0" encoding="UTF-8"?>
<svg version="1.1" viewBox="0 0 2000 2000" width="500" height="500" xmlns="http://www.w3.org/2000/svg">
<path transform="translate(990,515)" d="m0 0h23l15 3 14 5 16 9 13 10 8 7 10 9 7 7 9 11 10 15 10 19 9 24 10 31 11 42 9 37 10 46 5 24 4 4 28 13 32 14 10 6 5 6 5 35 15 112 6 43 2 15 3 26 2 10 2 18 2 10-8 5-20 9-34 13-35 12-29 8-8 1-2-27-3-23-1-19-3-28-5-53-12-124v-6l-5 1-17 1 2 31 3 28v23l-8 122-3 35-2 30-1 26-8 3-59 14-43 9-43 7-32 4-48 4-51 3-47 1-37-1-44-3-30-3-14-2v-26l2-51 1-16 2-72 2-35 2-77 2-35 1-54 2-48 1-13 1-30 6-7 10-4 15-3 50-7 38-6h5l1-8 9-45 5-20 3-14 5-12 7-19 7-15 7-13 12-18 9-10 10-10 10-7 21-10 21-5h23l6 1 9-9 14-8 10-4zm7 20-12 3-16 8-2 3 10 7 10 8 9 9 13 17 14 27 7 18 4 16 4 31 1 73 29 13 15 7 25 11 40 19 4 1-1-8-11-49-11-45-12-42-10-30-11-24-10-16-10-13-9-10-14-11-11-8-17-9-15-5-5-1zm-72 26-18 2-12 4-14 9-10 9-9 12-11 18-10 23-6 17v6l16 8 21 10 29 13 16 8h3l-2-20-1-12v-63l5-25 5-15v-4zm26 9-4 9-4 16-3 23v39l4 43 3 13 12 6 32 14 19 9h2v-48l-4-34-5-19-9-21-6-11-10-14-14-15-12-10zm-99 165-13 8-13 4-10 2-3 5-5 35-5 42v6l4 3 37 16 4 1v-30l2-32 2-42 1-18zm-66 18-10 2-42 6-30 4-24 5-6 3 2 5 24 12 28 13 24 11 25 12h1l9-69z" fill="#5E2E9A"/>
<path transform="translate(1306,1223)" d="m0 0 3 2 2 7 2 19 3 16 3 21 2 21 2 8v11l-6 11h-2v2l-10 7-19 13-18 13-72 49-20 14-22 15-16 11-17 12-11 7-15 5h-7l-16-7-25-12-41-19-38-18-41-19-25-12-34-16-33-15-52-25-60-28-16-7-1-2 15 1 36 3 52 2h58l55-2 47-3 47-5 60-8 23-4h5l1 164 2-3 7-20 21-57 19-50 8-21 8-20 1-1h10l-1-4 7-9 42-15 34-13 26-12z" fill="#5E2E9A"/>
<path transform="translate(1296,842)" d="m0 0h27l23 3 21 5 24 8 20 9 21 12 17 12 11 9 9 8 7 8 10 13 7 12 6 15 4 20v14l-4 21-8 23-8 16-9 15-13 19-13 15-5 6h-2l-2 4-14 14-11 9-15 12-24 16-19 12-22 12-26 14-21 10-29 12-44 17-31 10-43 12-37 9-42 8-41 7-48 6-40 4-50 3-21 1h-52l-39-2-39-4-42-6-26-5-40-11-25-9-22-10-22-13-13-10-13-12-10-11-12-18-8-17-4-13-2-12v-21l3-15 5-15 6-11 7-11 9-12 16-17 10-9 16-13 28-17 19-11 3 1-11 8-15 10-18 13-13 11-11 9-10 10-7 8-13 17-9 16-6 16-1 4-1 15 1 15 5 17 9 16 11 13 7 8 9 8 18 11 14 6 36 11 29 6 39 6 49 5 28 2 30 1h26l42-1 33-2 36-4 55-9 73-14 63-14 44-12 44-13 32-11 29-11 36-15 38-19 24-14 19-12 21-16 11-9 10-9 16-16 9-11 10-14 8-13 9-20 3-11v-17l-4-15-8-16-8-11-11-12-13-11-17-12-18-11-23-12-20-8-23-7-31-7-4-2z" fill="#5F309B"/>
<path transform="translate(830,671)" d="m0 0 9 3 26 12 15 7 29 13 19 10 17 8 9 3 29 13 21 9 7 4v11l-3 55-5 60-6 47-4 1-16-8-36-17-26-12-32-15-27-12-11-5v-2h2v-29l2-32 2-42 1-17h-1l-1-13-5-12-8-11-9-14 1-10z" fill="#D4D4ED"/>
<path transform="translate(1259,966)" d="m0 0 3 1 4 6v4h2l5 23 5 25 2 13 1 2 2-1 2 19 2 11 2 19 2 10 2 18 2 10-8 5-20 9-34 13-35 12-29 8-8 1-2-27-3-23-1-19-3-28-5-53-1-16 2-4h3l-1-8h-2l1-9 6-1 2-1 6-1 21-4 27-6 20-4 6-2h7l4-1v3l6 1 1-4h3z" fill="#BBB0D9"/>
<path transform="translate(1038,765)" d="m0 0 24 10 25 12 50 22 28 13 40 18 24 11 16 8 3 3v2l-15 6-17 5-26 5-23 3-18 1-35 1-7 3-4 7-1 5 1 17 3 30 1 7v15l-3 3h-9l-25-10-39-18-11-5 1-10 5-34 5-47 4-48 2-29z" fill="#BAAFD8"/>
<path transform="translate(830,671)" d="m0 0 9 3 26 12 15 7 29 13 19 10 17 8 9 3 29 13 21 9 7 4v11l-3 55-5 60-2 17h-1v-9l3-36v-6l-4-4-2-1v-2l-5-1-4-4-4-8-9-9-11-8-10-6-12-8-8-3-9-6-15-8-26-12-7-4-12 1-5-5-3-7-3-2-1 3h-1v-15h-1l-1-13-5-12-8-11-9-14 1-10z" fill="#BAAFD8"/>
<path transform="translate(1306,1223)" d="m0 0 3 2 2 7 2 19 3 16 3 21 2 21 2 8v11l-6 11h-2v2l-5-1-21-9-28-11-20-8-57-23-8-4-5-1v-1h10l-1-4 7-9 42-15 34-13 26-12z" fill="#D4D4ED"/>
<path transform="translate(1259,966)" d="m0 0 3 1 4 6v4h2l5 23 5 25 2 13 1 2 2-1 2 19v7l-2 1-3-11-2-9-4-7v-5l-6 2-5-1-1 1h-7l-1-1h-8l-2 1-13 1-20 5-14 3-26 6-10 2-3-1-6 7-2-3-4-41v-7l2-4h3l-1-8h-2l1-9 6-1 2-1 6-1 21-4 27-6 20-4 6-2h7l4-1v3l6 1 1-4h3z" fill="#A48FC8"/>
<path transform="translate(1227,906)" d="m0 0 3 1 3 3 20 1 5 3 2 7 2 12 4 20 10 56v2h3l3 22v9l-3-4-3-18-8-40v-3h-2l-3-7-1-3h-3l-2 2-2-1-1 3-6-1-1-2-4 1-10 1-15 4-26 5-17 4-12 2-7 1-5 2-2-1v7l-1 2h2l1 8h-3l-1 4-2-4-7-72v-8h2v-3l10 2 5-1 1-1h8v2l4-3v-2l6-3 10-2 8-3 3 1 7-1 4 1h7l5-2h10l-1-1z" fill="#7E5CB2"/>
<path transform="translate(1037,848)" d="m0 0h2l6 12h5l4 4 2 4 3 1v3l9 2v2l6 2 8 5 7 2 1 3h7l2-4 7-2 3 3-6 10-1 5 1 17 3 30 1 7v15l-3 3h-9l-25-10-39-18-11-5 1-10 2-13h2l1-12 3-25 3-21 4-6z" fill="#D4D3ED"/>
<path transform="translate(848,823)" d="m0 0h1l1 7-1 2h2l2 11 1 7 3 2v3l6 2 13 6 18 7 5 2v2l5 1 15 7 13 7 7 3 17 8 12 6 15 6 8 1 5 1v9l-2 3-17-7-36-17-26-12-32-15-27-12-11-5v-2h2v-29z" fill="#F6F5F9"/>
<path transform="translate(990,945)" d="m0 0 2 1v15l1 5 7 2h7l6-5h3l-1 7-4 7-7 5h-10l-9-6-3-5-1-4v-9l6-11z" fill="#7F5EB3"/>
<path transform="translate(772,856)" d="m0 0h2l2 14 5 2v2h9l6-4 3-6 2-8h2l1 3v16l-4 7-5 4-2 1h-8l-10-5-5-8-1-9z" fill="#805FB3"/>
<path transform="translate(1105,981)" d="m0 0 2 4 1 54 1 31 2 2v15l-2 22h-1l-1-15 1-10-2-1-1-10z" fill="#7F5DB2"/>
<path transform="translate(1141,892)" d="m0 0h21v2l-8 2-12 1-5-1-2 4v-6z" fill="#7F5DB2"/>
<path transform="translate(1010,971)" d="m0 0 1 3-6 5-5-1-2 1-9-2v-3h4v2h6v-2l10-2z" fill="#A48FC8"/>
<path transform="translate(776,879)" d="m0 0 15 3 1-2 2 4-2 1h-7l-7-3z" fill="#A48FC8"/>
<path transform="translate(1279,1018)" d="m0 0h1l2 15v9l-3-4-2-14h2z" fill="#8565B6"/>
<path transform="translate(611,992)" d="m0 0 3 1-11 8-7 4 1-5z" fill="#7650AB"/>
<path transform="translate(1299,1334)" d="m0 0 6 1 9 3v-3l4-1-1 5h-2v2l-5-1-11-5z" fill="#B9AED8"/>
<path transform="translate(1275,1011)" d="m0 0h4v13h-2l-2-7z" fill="#7D5BB1"/>
<path transform="translate(703,1306)" d="m0 0 3 1z" fill="#8A6DB9"/>
</svg>
